<svg aria-hidden='true' style='position: absolute; width: 0; height: 0; overflow: hidden;' version='1.1'
  xmlns='http://www.w3.org/2000/svg'
  xmlns:xlink='http://www.w3.org/1999/xlink'>
  <defs>
      <symbol id='icon-arrow-left' viewBox='0 0 32 32'>
          <path d='M22.547 31.953l-15.969-15.953 15.969-15.953 1.406 1.406-14.531 14.547 14.531 14.547-1.406 1.406z'></path>
      </symbol>
      <symbol id="icon-person-regular" viewBox="0 0 32 32" data-icontype="regular">
        <path d="M16 2.667a6.667 6.667 0 1 0 0 13.334 6.667 6.667 0 0 0 0-13.334zm-5 6.666a5 5 0 0 1 10 0 5 5 0 0 1-10 0zm-2.833 9.334A2.833 2.833 0 0 0 5.334 21.5v.501c0 2.503 1.295 4.378 3.28 5.587 1.953 1.189 4.577 1.747 7.387 1.747s5.433-.558 7.387-1.747c1.985-1.209 3.28-3.083 3.28-5.587V21.5a2.833 2.833 0 0 0-2.833-2.833H8.167zM7 21.499c0-.644.523-1.166 1.167-1.166h15.667c.645 0 1.167.522 1.167 1.166V22c0 1.829-.907 3.205-2.48 4.163-1.607.978-3.899 1.503-6.52 1.503s-4.913-.525-6.52-1.503c-1.573-.958-2.48-2.333-2.48-4.163v-.501z"></path>
      </symbol>
      <symbol id="icon-edit-regular" viewBox="0 0 32 32" data-icontype="regular">
        <path d="M27.983 4.017c-.833-.833-1.984-1.349-3.256-1.349s-2.423.515-3.256 1.349L5.359 20.132a3.994 3.994 0 0 0-1.042 1.811l-.006.028-1.618 6.323a.833.833 0 0 0 1.019 1.013l-.006.001 6.325-1.617a4.015 4.015 0 0 0 1.84-1.048l16.112-16.114c.833-.833 1.349-1.984 1.349-3.256s-.515-2.423-1.349-3.256zm-5.334 1.178a2.938 2.938 0 1 1 4.156 4.154l-1.471 1.471-4.155-4.155 1.471-1.471zM20 7.845 24.155 12 10.692 25.464a2.327 2.327 0 0 1-1.058.608l-.016.004-4.962 1.269 1.269-4.961c.104-.407.315-.777.611-1.073L19.999 7.846z"></path>
      </symbol>
      <symbol id="icon-document-regular" viewBox="0 0 32 32" data-icontype="regular">
        <path d="M8.167 2.667A2.833 2.833 0 0 0 5.334 5.5v21a2.833 2.833 0 0 0 2.833 2.833h15.667a2.833 2.833 0 0 0 2.833-2.833V12.276c0-.414-.168-.789-.439-1.06l-8.109-8.111a1.495 1.495 0 0 0-1.06-.439H8.167zM7 5.5c0-.644.523-1.167 1.167-1.167H16v5.833a2.5 2.5 0 0 0 2.5 2.5H25v13.833c0 .644-.522 1.167-1.167 1.167H8.166a1.167 1.167 0 0 1-1.167-1.167v-21zM23.655 11H18.5a.833.833 0 0 1-.833-.833V5.012L23.655 11z"></path>
      </symbol>
  </defs>
  
</svg>