<svg aria-hidden='true' style='position: absolute; width: 0; height: 0; overflow: hidden;' version='1.1'
  xmlns='http://www.w3.org/2000/svg'
  xmlns:xlink='http://www.w3.org/1999/xlink'>
  <defs>
      <symbol id='icon-arrow-left' viewBox='0 0 32 32'>
          <path d='M22.547 31.953l-15.969-15.953 15.969-15.953 1.406 1.406-14.531 14.547 14.531 14.547-1.406 1.406z'></path>
      </symbol>
      <symbol id="icon-person-regular" viewBox="0 0 32 32" data-icontype="regular">
        <path d="M16 2.667a6.667 6.667 0 1 0 0 13.334 6.667 6.667 0 0 0 0-13.334zm-5 6.666a5 5 0 0 1 10 0 5 5 0 0 1-10 0zm-2.833 9.334A2.833 2.833 0 0 0 5.334 21.5v.501c0 2.503 1.295 4.378 3.28 5.587 1.953 1.189 4.577 1.747 7.387 1.747s5.433-.558 7.387-1.747c1.985-1.209 3.28-3.083 3.28-5.587V21.5a2.833 2.833 0 0 0-2.833-2.833H8.167zM7 21.499c0-.644.523-1.166 1.167-1.166h15.667c.645 0 1.167.522 1.167 1.166V22c0 1.829-.907 3.205-2.48 4.163-1.607.978-3.899 1.503-6.52 1.503s-4.913-.525-6.52-1.503c-1.573-.958-2.48-2.333-2.48-4.163v-.501z"></path>
      </symbol>
  </defs>
  
</svg>